<svg xmlns="http://www.w3.org/2000/svg" width="107" height="49" viewBox="0 0 107 49"><polyline points="8.5 39 8.5 8.5 53.5 8.5 53.5 39" fill="#f2ece5" stroke="#676564" stroke-miterlimit="10"/><polyline points="53.5 39 53.5 8.5 98.5 8.5 98.5 39" fill="#f2ece5" stroke="#676564" stroke-miterlimit="10"/><polygon points="99 38 99 49 8 49 8 38 53.5 38 99 38" fill="#cbb8a9"/><path d="M99,38H96v1h3V38Zm-6,0H90v1h3V38Zm-6,0H84v1h3V38Zm-6,0H78v1h3V38Zm-6,0H72v1h3V38Zm-6,0H66v1h3V38Zm-6,0H60v1h3V38Zm-6,0H54v1h3V38Zm-6,0H48v1h3V38Zm-6,0H42v1h3V38Zm-6,0H36v1h3V38Zm-6,0H30v1h3V38Zm-6,0H24v1h3V38Zm-6,0H18v1h3V38Zm-6,0H12v1h3V38ZM9,38H8v1H8v1H9V38Zm0,5H8v3H9V43Zm2,5H8v1h3V48Zm6,0H14v1h3V48Zm6,0H20v1h3V48Zm6,0H26v1h3V48Zm6,0H32v1h3V48Zm6,0H38v1h3V48Zm6,0H44v1h3V48Zm6,0H50v1h3V48Zm6,0H56v1h3V48Zm6,0H62v1h3V48Zm6,0H68v1h3V48Zm6,0H74v1h3V48Zm6,0H80v1h3V48Zm6,0H86v1h3V48Zm6,0H92v1h3V48Zm4-1H98v1h0v1h1V47Zm0-6H98v3h1V41Z" fill="#676564"/><path d="M106.5,2.5v44a2,2,0,0,1-2,2h-6V8.5H8.5v40h-6a2,2,0,0,1-2-2V2.5a2,2,0,0,1,2-2h102A2,2,0,0,1,106.5,2.5Z" fill="#fff" stroke="#676564" stroke-linejoin="round"/><line x1="53.5" y1="36" x2="53.5" y2="49" fill="none" stroke="#676564" stroke-linejoin="round" stroke-dasharray="3"/></svg>