<svg xmlns="http://www.w3.org/2000/svg" width="107" height="39" viewBox="0 0 107 39"><polyline points="8.5 39 8.5 8.5 53.5 8.5 53.5 39" fill="#f2ece5" stroke="#676564" stroke-miterlimit="10"/><polyline points="53.5 39 53.5 8.5 98.5 8.5 98.5 39" fill="#f2ece5" stroke="#676564" stroke-miterlimit="10"/><path d="M106.5,2.5v34a2,2,0,0,1-2,2h-6V8.5H8.5v30h-6a2,2,0,0,1-2-2V2.5a2,2,0,0,1,2-2h102A2,2,0,0,1,106.5,2.5Z" fill="#fff" stroke="#676564" stroke-linejoin="round"/><line x1="9" y1="38.5" x2="99" y2="38.5" fill="none" stroke="#676564" stroke-miterlimit="10"/></svg>